<svg width="90" height="88" viewBox="0 0 90 88" fill="none" xmlns="http://www.w3.org/2000/svg">
<path d="M0 43.9375C0 23.2252 -4.76837e-07 12.869 6.55042 6.43448C13.1009 -4.76837e-07 23.6436 0 44.7292 0C65.8145 0 76.3574 -4.76837e-07 82.9081 6.43448C89.4583 12.869 89.4583 23.2252 89.4583 43.9375C89.4583 64.6496 89.4583 75.0059 82.9081 81.4407C76.3574 87.875 65.8145 87.875 44.7292 87.875C23.6436 87.875 13.1009 87.875 6.55042 81.4407C-4.76837e-07 75.0059 0 64.6496 0 43.9375Z" fill="#222265"/>
<path d="M28.6259 43.7003H56.8763" stroke="white" stroke-width="8.5" stroke-linecap="round" stroke-linejoin="round"/>
<path d="M33.3342 59.8878H52.1676" stroke="white" stroke-width="8.5" stroke-linecap="round" stroke-linejoin="round"/>
<path d="M23.9175 27.5128H61.5841" stroke="white" stroke-width="8.5" stroke-linecap="round" stroke-linejoin="round"/>
</svg>
